<svg xmlns="http://www.w3.org/2000/svg" version="1.1" xlink="http://www.w3.org/1999/xlink" xmlns:svgjs="http://svgjs.com/svgjs" width="100%" height="100%" preserveAspectRatio="xMidYMid meet" viewBox="-3.7185535006756254e-7 -1.4275646265105024e-7 300.0035705566406 43.229488372802734" overflow="visible"><defs id="SvgjsDefs38337"></defs><g id="SvgjsG38338" transform="scale(0.48790323104192707)" opacity="1"><g id="SvgjsG38339" class="7NThgdDH4" transform="translate(-4.935441741029655, -4.935441741029655) scale(0.9847345409930633)" light-content="false" non-strokable="false" fill="#216ac4"><path d="M41.41 60.73c-13.949-15.441-14.281-38.879-1-54.699-11.238 2.441-20.898 9.07-27.289 18.191.91 17.16 12.531 31.52 28.289 36.512z"></path><path d="M36.34 51.52c1.05-20.781 17.391-37.578 37.961-39.379A44.758 44.758 0 0 0 50 5.012c-2.66 0-5.27.238-7.8.692-11.5 12.78-13.47 31.148-5.86 45.828z"></path><path d="M39.27 41.41c15.441-13.949 38.879-14.281 54.699-1-2.441-11.238-9.07-20.91-18.191-27.289-17.16.91-31.52 12.531-36.512 28.289zm24.39 7.07c-1.05 20.781-17.391 37.578-37.961 39.379A44.758 44.758 0 0 0 50 94.988c2.66 0 5.27-.238 7.8-.692 11.5-12.78 13.47-31.148 5.86-45.828z"></path><path d="M58.59 39.27c13.949 15.441 14.281 38.879 1 54.699 11.238-2.441 20.898-9.07 27.289-18.191-.91-17.16-12.531-31.52-28.289-36.512zm-7.07 24.39c-20.781-1.05-37.578-17.391-39.379-37.961A44.758 44.758 0 0 0 5.012 50c0 2.66.238 5.27.692 7.8 12.78 11.5 31.148 13.47 45.828 5.86z"></path><path d="M48.48 36.34c20.781 1.05 37.578 17.391 39.379 37.961A44.758 44.758 0 0 0 94.988 50c0-2.66-.238-5.27-.692-7.8-12.78-11.5-31.148-13.47-45.828-5.86zm12.25 22.25c-7.91 7.148-17.922 10.719-27.93 10.719-10.012 0-19.051-3.25-26.77-9.73 2.441 11.237 9.07 20.91 18.191 27.288 17.16-.91 31.52-12.53 36.512-28.288z"></path></g><g id="SvgjsG38340" class="text" transform="translate(359.48331938424735, 42.12) scale(1)" light-content="false" fill="#216ac4"><path d="M-252.99 -42.12L-252.99 0L-238.96 0L-238.96 -15.01L-226.01 -15.01L-226.01 -23.3L-238.96 -23.3L-238.96 -42.12ZM-236.74 -33.71L-229.37 -33.71L-229.37 -28.15L-215.34 -28.15L-215.34 -42.12L-236.74 -42.12Z M-197.19 -8.41L-197.19 -17.39L-191.1 -17.39L-191.1 -25.26L-197.19 -25.26L-197.19 -33.71L-191.1 -33.71L-191.1 -42.12L-202.65 -42.12L-211.09 -33.71L-211.09 -25.45L-206.04 -21.33L-211.09 -17.17L-211.09 -8.41L-202.65 0L-191.1 0L-191.1 -8.41ZM-182.37 -33.71L-182.37 -25.26L-188.87 -25.26L-188.87 -17.39L-182.37 -17.39L-182.37 -8.41L-188.87 -8.41L-188.87 0L-177.45 0.03L-169.04 -8.38L-169.04 -17.08L-174.05 -21.3L-169.04 -25.52L-169.04 -33.67L-177.45 -42.08L-188.87 -42.12L-188.87 -33.71Z M-128.83 0L-112.8 0L-104.36 -8.41L-104.36 -33.71L-112.8 -42.12L-128.83 -42.12L-128.83 -33.71L-118.42 -33.71L-118.42 -8.41L-128.83 -8.41ZM-145.08 -42.12L-145.08 0L-131.05 0L-131.05 -42.12Z M-83.88 -17.3L-70.46 -17.3L-70.46 -25.42L-83.88 -25.42L-83.88 -42.12L-97.91 -42.12L-97.91 0L-83.88 0ZM-81.66 -33.96L-72.93 -33.96L-72.93 -29.93L-59.73 -29.93L-59.73 -42.12L-81.66 -42.12ZM-81.66 0L-59.73 0L-59.73 -12.63L-73.76 -12.63L-73.76 -8.41L-81.66 -8.41Z M-28.66 0L-43.23 -42.12L-57.54 -42.12L-42.31 0ZM-26.47 -42.12L-33.26 -19.8L-26.95 -1.27L-12.38 -42.12Z M4.54 -17.3L17.96 -17.3L17.96 -25.42L4.54 -25.42L4.54 -42.12L-9.49 -42.12L-9.49 0L4.54 0ZM6.76 -33.96L15.49 -33.96L15.49 -29.93L28.69 -29.93L28.69 -42.12L6.76 -42.12ZM6.76 0L28.69 0L28.69 -12.63L14.66 -12.63L14.66 -8.41L6.76 -8.41Z M35.42 0L49.45 0L49.45 -42.12L35.42 -42.12ZM51.67 0L71.35 0L71.35 -13.74L58.62 -13.74L58.62 -8.41L51.67 -8.41Z M88.71 -8.57L88.71 -33.58L93.98 -33.58L93.98 -42.12L83.19 -42.12L74.65 -33.71L74.65 -8.41L83.19 0L93.98 0L93.98 -8.57ZM101.56 -33.58L101.56 -8.57L96.2 -8.57L96.2 0L107.08 0L115.59 -8.41L115.59 -33.71L107.08 -42.12L96.2 -42.12L96.2 -33.58Z M122 0L135.78 0L135.78 -42.12L122 -42.12ZM138 -33.71L148.19 -33.71L148.19 -19.27L138 -19.27L138 -10.82L153.74 -10.82L162.15 -19.27L162.15 -33.71L153.74 -42.12L138 -42.12Z M182.37 -17.3L195.79 -17.3L195.79 -25.42L182.37 -25.42L182.37 -42.12L168.34 -42.12L168.34 0L182.37 0ZM184.59 -33.96L193.32 -33.96L193.32 -29.93L206.52 -29.93L206.52 -42.12L184.59 -42.12ZM184.59 0L206.52 0L206.52 -12.63L192.49 -12.63L192.49 -8.41L184.59 -8.41Z M213.25 0L227.28 0L227.28 -42.12L213.25 -42.12ZM229.5 -33.71L240.04 -33.71L240.04 -20.79L229.5 -20.79L229.5 -12.63L234.39 -12.63L233.88 -13.74L247.05 -15.49L247.5 -14.6L253.97 -21.07L253.97 -33.71L245.53 -42.12L229.5 -42.12ZM255.4 0L247.5 -14.6L245.53 -12.63L234.39 -12.63L240.42 0Z"></path></g><g id="SvgjsG38341" class="text" transform="translate(272.17331938424735, 74.96999999999997) scale(1)" light-content="false" fill="#000000"><path d="M-148.27 -11.44C-148.27 -12.71 -148.45 -13.87 -148.83 -14.93C-149.2 -15.99 -149.73 -16.9 -150.42 -17.66C-151.11 -18.42 -151.96 -19.01 -152.95 -19.43C-153.94 -19.85 -155.06 -20.06 -156.29 -20.06L-163.21 -20.06L-165.68 0L-158.75 0C-157.24 0 -155.84 -0.28 -154.56 -0.83C-153.28 -1.38 -152.17 -2.15 -151.24 -3.16C-150.31 -4.16 -149.59 -5.36 -149.06 -6.77C-148.53 -8.17 -148.27 -9.73 -148.27 -11.44ZM-150.96 -11.38C-150.96 -9.94 -151.14 -8.64 -151.51 -7.5C-151.88 -6.35 -152.39 -5.38 -153.05 -4.58C-153.72 -3.79 -154.51 -3.18 -155.43 -2.75C-156.36 -2.33 -157.38 -2.11 -158.5 -2.11L-162.78 -2.11L-160.83 -17.93L-156.54 -17.93C-155.67 -17.93 -154.89 -17.78 -154.2 -17.48C-153.51 -17.18 -152.93 -16.74 -152.45 -16.18C-151.97 -15.61 -151.6 -14.92 -151.34 -14.11C-151.08 -13.3 -150.96 -12.39 -150.96 -11.38Z M-142.16 -14.18L-144.61 -14.18L-146.32 0L-143.87 0ZM-141.22 -18.63C-141.22 -18.88 -141.27 -19.11 -141.36 -19.33C-141.46 -19.55 -141.59 -19.74 -141.75 -19.9C-141.91 -20.06 -142.1 -20.19 -142.3 -20.29C-142.51 -20.38 -142.72 -20.43 -142.95 -20.43C-143.16 -20.43 -143.37 -20.38 -143.58 -20.28C-143.78 -20.18 -143.96 -20.05 -144.12 -19.89C-144.28 -19.72 -144.41 -19.53 -144.5 -19.32C-144.59 -19.11 -144.64 -18.88 -144.64 -18.63C-144.64 -18.39 -144.59 -18.16 -144.5 -17.96C-144.41 -17.74 -144.28 -17.56 -144.13 -17.39C-143.98 -17.23 -143.8 -17.1 -143.59 -17.01C-143.39 -16.92 -143.18 -16.87 -142.96 -16.87C-142.74 -16.87 -142.52 -16.92 -142.32 -17.01C-142.11 -17.1 -141.93 -17.23 -141.76 -17.39C-141.6 -17.56 -141.47 -17.74 -141.37 -17.96C-141.27 -18.16 -141.22 -18.39 -141.22 -18.63Z M-129.41 -10.25C-129.41 -10.55 -129.43 -10.83 -129.48 -11.09C-129.53 -11.36 -129.59 -11.62 -129.68 -11.86L-127.91 -12.17C-127.73 -12.19 -127.6 -12.27 -127.51 -12.4C-127.42 -12.53 -127.37 -12.68 -127.35 -12.84L-127.24 -13.66L-131.09 -13.66C-131.84 -14.15 -132.74 -14.39 -133.76 -14.39C-134.68 -14.39 -135.49 -14.24 -136.18 -13.93C-136.89 -13.62 -137.47 -13.21 -137.95 -12.7C-138.43 -12.2 -138.79 -11.62 -139.03 -10.97C-139.28 -10.32 -139.4 -9.66 -139.4 -8.99C-139.4 -8.3 -139.3 -7.69 -139.1 -7.17C-138.89 -6.66 -138.61 -6.23 -138.26 -5.88C-137.9 -5.53 -137.49 -5.27 -137.02 -5.1C-136.55 -4.92 -136.04 -4.83 -135.5 -4.83C-134.94 -4.83 -134.44 -4.9 -134 -5.03C-133.56 -5.16 -133.17 -5.34 -132.81 -5.59C-133.02 -5.2 -133.16 -4.86 -133.25 -4.55C-133.34 -4.24 -133.39 -3.94 -133.39 -3.65C-133.39 -3.43 -133.36 -3.22 -133.31 -3.03C-133.26 -2.84 -133.19 -2.66 -133.11 -2.48C-133.43 -2.52 -133.76 -2.56 -134.09 -2.59C-134.42 -2.62 -134.76 -2.63 -135.09 -2.63C-135.92 -2.63 -136.74 -2.55 -137.54 -2.39C-138.33 -2.24 -139.05 -1.98 -139.67 -1.64C-140.3 -1.29 -140.8 -0.85 -141.18 -0.32C-141.57 0.21 -141.76 0.84 -141.76 1.58C-141.76 2.1 -141.63 2.58 -141.37 3.02C-141.12 3.45 -140.75 3.82 -140.28 4.13C-139.81 4.44 -139.24 4.68 -138.57 4.84C-137.9 5.01 -137.17 5.1 -136.35 5.1C-135.34 5.1 -134.42 4.96 -133.6 4.7C-132.79 4.43 -132.09 4.07 -131.52 3.61C-130.95 3.15 -130.52 2.63 -130.21 2.04C-129.9 1.44 -129.74 0.82 -129.74 0.15C-129.74 -0.39 -129.84 -0.86 -130.03 -1.25C-130.22 -1.65 -130.43 -2.02 -130.66 -2.35C-130.89 -2.69 -131.1 -3.01 -131.29 -3.33C-131.48 -3.65 -131.58 -4 -131.58 -4.4C-131.58 -4.74 -131.53 -5.06 -131.42 -5.35C-131.31 -5.65 -131.18 -5.94 -131.02 -6.22C-130.86 -6.5 -130.69 -6.78 -130.5 -7.06C-130.31 -7.34 -130.14 -7.63 -129.98 -7.95C-129.82 -8.27 -129.69 -8.61 -129.58 -8.99C-129.48 -9.36 -129.42 -9.78 -129.41 -10.25ZM-134.81 -6.4C-135.54 -6.4 -136.11 -6.62 -136.51 -7.06C-136.92 -7.49 -137.12 -8.13 -137.12 -8.97C-137.12 -9.45 -137.06 -9.91 -136.92 -10.35C-136.78 -10.78 -136.59 -11.18 -136.33 -11.52C-136.06 -11.87 -135.74 -12.14 -135.36 -12.35C-134.98 -12.55 -134.53 -12.66 -134.03 -12.66C-133.3 -12.66 -132.73 -12.45 -132.31 -12.03C-131.9 -11.61 -131.69 -10.99 -131.69 -10.16C-131.69 -9.71 -131.76 -9.25 -131.9 -8.81C-132.04 -8.36 -132.24 -7.95 -132.51 -7.59C-132.78 -7.24 -133.1 -6.95 -133.48 -6.73C-133.87 -6.51 -134.31 -6.4 -134.81 -6.4ZM-132.01 0.35C-132.01 0.75 -132.11 1.13 -132.31 1.5C-132.51 1.86 -132.79 2.18 -133.15 2.45C-133.51 2.72 -133.95 2.94 -134.46 3.1C-134.96 3.26 -135.53 3.35 -136.14 3.35C-137.18 3.35 -137.98 3.17 -138.54 2.81C-139.11 2.46 -139.39 1.95 -139.39 1.27C-139.39 0.96 -139.3 0.65 -139.12 0.36C-138.95 0.06 -138.68 -0.2 -138.31 -0.42C-137.95 -0.64 -137.49 -0.82 -136.93 -0.96C-136.37 -1.09 -135.7 -1.16 -134.94 -1.16C-134.55 -1.16 -134.13 -1.14 -133.69 -1.11C-133.24 -1.07 -132.77 -1.01 -132.27 -0.92C-132.19 -0.74 -132.13 -0.54 -132.08 -0.33C-132.04 -0.12 -132.01 0.11 -132.01 0.35Z M-122.34 -14.18L-124.79 -14.18L-126.5 0L-124.05 0ZM-121.4 -18.63C-121.4 -18.88 -121.45 -19.11 -121.54 -19.33C-121.63 -19.55 -121.76 -19.74 -121.93 -19.9C-122.09 -20.06 -122.27 -20.19 -122.48 -20.29C-122.68 -20.38 -122.9 -20.43 -123.12 -20.43C-123.34 -20.43 -123.55 -20.38 -123.75 -20.28C-123.96 -20.18 -124.14 -20.05 -124.3 -19.89C-124.46 -19.72 -124.58 -19.53 -124.68 -19.32C-124.77 -19.11 -124.82 -18.88 -124.82 -18.63C-124.82 -18.39 -124.77 -18.16 -124.68 -17.96C-124.58 -17.74 -124.46 -17.56 -124.31 -17.39C-124.15 -17.23 -123.97 -17.1 -123.77 -17.01C-123.56 -16.92 -123.35 -16.87 -123.14 -16.87C-122.91 -16.87 -122.7 -16.92 -122.49 -17.01C-122.29 -17.1 -122.1 -17.23 -121.94 -17.39C-121.78 -17.56 -121.65 -17.74 -121.55 -17.96C-121.45 -18.16 -121.4 -18.39 -121.4 -18.63Z M-118.78 -2.67C-118.76 -1.73 -118.49 -1.01 -117.97 -0.52C-117.45 -0.02 -116.73 0.22 -115.83 0.22C-115.24 0.22 -114.66 0.11 -114.07 -0.12C-113.49 -0.35 -112.97 -0.66 -112.52 -1.06L-113.04 -2.25C-113.09 -2.34 -113.13 -2.4 -113.18 -2.44C-113.22 -2.47 -113.28 -2.49 -113.35 -2.49C-113.43 -2.49 -113.51 -2.46 -113.6 -2.39C-113.7 -2.32 -113.81 -2.24 -113.95 -2.16C-114.08 -2.07 -114.24 -1.99 -114.43 -1.92C-114.62 -1.85 -114.83 -1.82 -115.07 -1.82C-115.46 -1.82 -115.76 -1.93 -115.98 -2.16C-116.2 -2.39 -116.3 -2.74 -116.3 -3.22C-116.3 -3.25 -116.3 -3.29 -116.3 -3.35C-116.29 -3.4 -116.28 -3.5 -116.27 -3.64L-116.21 -4.2C-116.19 -4.43 -116.16 -4.74 -116.11 -5.12L-115.25 -12.1L-111.52 -12.1L-111.31 -13.9L-115.03 -13.9L-114.41 -18.79L-115.73 -18.79C-115.88 -18.79 -116.01 -18.74 -116.11 -18.65C-116.21 -18.57 -116.28 -18.45 -116.32 -18.31L-117.37 -13.93L-119.55 -13.64C-119.56 -13.53 -119.57 -13.43 -119.59 -13.31C-119.6 -13.2 -119.62 -13.09 -119.63 -12.98C-119.64 -12.88 -119.66 -12.78 -119.66 -12.7C-119.67 -12.61 -119.68 -12.56 -119.68 -12.53C-119.68 -12.38 -119.64 -12.27 -119.56 -12.2C-119.48 -12.13 -119.38 -12.1 -119.26 -12.1L-117.68 -12.1L-118.56 -5C-118.61 -4.56 -118.66 -4.2 -118.68 -3.93C-118.71 -3.66 -118.73 -3.44 -118.75 -3.28C-118.76 -3.11 -118.77 -2.98 -118.78 -2.89C-118.78 -2.8 -118.78 -2.73 -118.78 -2.67Z M-99.99 0L-98.3 -13.72C-98.86 -13.96 -99.43 -14.13 -100 -14.23C-100.58 -14.33 -101.17 -14.38 -101.77 -14.38C-102.61 -14.38 -103.42 -14.26 -104.18 -14.02C-104.95 -13.78 -105.66 -13.45 -106.33 -13.01C-107 -12.58 -107.6 -12.07 -108.14 -11.47C-108.68 -10.88 -109.15 -10.23 -109.54 -9.52C-109.92 -8.81 -110.22 -8.06 -110.43 -7.26C-110.64 -6.46 -110.75 -5.64 -110.75 -4.8C-110.75 -4 -110.66 -3.29 -110.48 -2.67C-110.3 -2.05 -110.05 -1.52 -109.73 -1.1C-109.41 -0.67 -109.02 -0.35 -108.56 -0.13C-108.11 0.09 -107.6 0.2 -107.04 0.2C-106.52 0.2 -106.03 0.1 -105.55 -0.08C-105.08 -0.27 -104.62 -0.53 -104.19 -0.87C-103.75 -1.22 -103.34 -1.63 -102.96 -2.11C-102.57 -2.6 -102.21 -3.14 -101.87 -3.74L-102.12 -0.87C-102.12 -0.63 -102.06 -0.42 -101.95 -0.25C-101.83 -0.08 -101.61 0 -101.28 0ZM-106.1 -1.88C-107.54 -1.88 -108.26 -3 -108.26 -5.25C-108.26 -5.89 -108.18 -6.52 -108.03 -7.13C-107.88 -7.74 -107.67 -8.32 -107.41 -8.86C-107.14 -9.4 -106.82 -9.9 -106.45 -10.35C-106.08 -10.81 -105.66 -11.2 -105.2 -11.52C-104.75 -11.85 -104.26 -12.1 -103.73 -12.28C-103.21 -12.47 -102.67 -12.56 -102.11 -12.56C-101.91 -12.56 -101.71 -12.55 -101.51 -12.54C-101.31 -12.52 -101.11 -12.49 -100.9 -12.45L-101.51 -7.57C-101.77 -6.74 -102.07 -5.98 -102.41 -5.28C-102.75 -4.59 -103.12 -3.99 -103.51 -3.49C-103.9 -2.98 -104.32 -2.59 -104.76 -2.3C-105.19 -2.02 -105.64 -1.88 -106.1 -1.88Z M-96.05 0L-93.6 0L-91.09 -20.62L-93.54 -20.62Z M-72.26 -16.95L-71.49 -18.06C-72.02 -18.74 -72.7 -19.28 -73.52 -19.67C-74.34 -20.06 -75.27 -20.26 -76.29 -20.26C-77.3 -20.26 -78.21 -20.09 -79.01 -19.74C-79.81 -19.39 -80.49 -18.93 -81.05 -18.35C-81.61 -17.78 -82.04 -17.11 -82.34 -16.35C-82.64 -15.6 -82.79 -14.81 -82.79 -13.99C-82.79 -13.25 -82.68 -12.63 -82.45 -12.12C-82.23 -11.62 -81.93 -11.2 -81.57 -10.85C-81.21 -10.5 -80.79 -10.22 -80.33 -10C-79.87 -9.77 -79.39 -9.57 -78.9 -9.39C-78.41 -9.22 -77.94 -9.04 -77.48 -8.87C-77.01 -8.7 -76.6 -8.49 -76.24 -8.26C-75.87 -8.03 -75.58 -7.74 -75.35 -7.4C-75.13 -7.06 -75.02 -6.63 -75.02 -6.12C-75.02 -5.5 -75.12 -4.94 -75.31 -4.43C-75.51 -3.92 -75.79 -3.49 -76.15 -3.12C-76.51 -2.76 -76.94 -2.47 -77.46 -2.27C-77.98 -2.06 -78.56 -1.96 -79.2 -1.96C-79.9 -1.96 -80.49 -2.06 -80.95 -2.27C-81.42 -2.48 -81.81 -2.72 -82.13 -2.97C-82.45 -3.23 -82.71 -3.46 -82.91 -3.67C-83.12 -3.88 -83.31 -3.99 -83.49 -3.99C-83.62 -3.99 -83.74 -3.96 -83.85 -3.89C-83.96 -3.83 -84.06 -3.74 -84.13 -3.64L-85.06 -2.39C-84.45 -1.59 -83.68 -0.95 -82.74 -0.48C-81.8 -0.01 -80.74 0.22 -79.54 0.22C-78.46 0.22 -77.48 0.04 -76.61 -0.34C-75.75 -0.71 -75.01 -1.21 -74.4 -1.85C-73.78 -2.48 -73.32 -3.22 -72.99 -4.07C-72.66 -4.91 -72.5 -5.81 -72.5 -6.76C-72.5 -7.45 -72.61 -8.04 -72.83 -8.53C-73.06 -9.01 -73.35 -9.43 -73.72 -9.77C-74.08 -10.12 -74.5 -10.41 -74.97 -10.64C-75.44 -10.87 -75.92 -11.09 -76.4 -11.28C-76.89 -11.47 -77.37 -11.65 -77.84 -11.84C-78.31 -12.02 -78.73 -12.23 -79.09 -12.47C-79.46 -12.7 -79.75 -12.99 -79.97 -13.32C-80.2 -13.65 -80.31 -14.06 -80.31 -14.55C-80.31 -15.04 -80.23 -15.5 -80.06 -15.93C-79.89 -16.36 -79.65 -16.74 -79.32 -17.06C-79 -17.38 -78.61 -17.64 -78.14 -17.82C-77.67 -18.01 -77.14 -18.1 -76.54 -18.1C-75.96 -18.1 -75.47 -18.02 -75.07 -17.86C-74.68 -17.69 -74.35 -17.52 -74.07 -17.32C-73.8 -17.13 -73.57 -16.96 -73.39 -16.79C-73.22 -16.63 -73.05 -16.55 -72.89 -16.55C-72.76 -16.55 -72.65 -16.58 -72.55 -16.65C-72.46 -16.72 -72.36 -16.82 -72.26 -16.95Z M-65.28 -1.75C-66.25 -1.75 -67 -2.08 -67.51 -2.75C-68.02 -3.42 -68.27 -4.41 -68.27 -5.71C-68.27 -6.6 -68.16 -7.45 -67.95 -8.26C-67.73 -9.07 -67.43 -9.79 -67.04 -10.41C-66.65 -11.03 -66.17 -11.52 -65.62 -11.89C-65.06 -12.26 -64.44 -12.45 -63.75 -12.45C-62.78 -12.45 -62.04 -12.11 -61.52 -11.45C-61.01 -10.79 -60.75 -9.8 -60.75 -8.5C-60.75 -7.61 -60.86 -6.76 -61.07 -5.95C-61.29 -5.14 -61.59 -4.42 -61.98 -3.8C-62.38 -3.18 -62.85 -2.68 -63.41 -2.31C-63.97 -1.94 -64.59 -1.75 -65.28 -1.75ZM-65.5 0.2C-64.48 0.2 -63.53 -0.04 -62.64 -0.5C-61.76 -0.96 -60.99 -1.59 -60.34 -2.38C-59.69 -3.17 -59.18 -4.1 -58.81 -5.15C-58.43 -6.21 -58.25 -7.33 -58.25 -8.51C-58.25 -9.44 -58.38 -10.26 -58.64 -11C-58.9 -11.73 -59.26 -12.35 -59.73 -12.85C-60.2 -13.36 -60.75 -13.74 -61.4 -14.01C-62.04 -14.27 -62.75 -14.41 -63.52 -14.41C-64.55 -14.41 -65.51 -14.18 -66.39 -13.72C-67.27 -13.26 -68.04 -12.64 -68.68 -11.84C-69.33 -11.05 -69.84 -10.13 -70.22 -9.07C-70.59 -8.02 -70.78 -6.89 -70.78 -5.7C-70.78 -4.76 -70.65 -3.93 -70.39 -3.21C-70.12 -2.48 -69.76 -1.86 -69.29 -1.36C-68.83 -0.85 -68.27 -0.47 -67.63 -0.2C-66.98 0.06 -66.27 0.2 -65.5 0.2Z M-56.24 0L-53.79 0L-51.29 -20.62L-53.74 -20.62Z M-45.87 -14.18L-48.35 -14.18L-49.41 -5.17C-49.44 -4.95 -49.46 -4.75 -49.47 -4.55C-49.48 -4.35 -49.48 -4.16 -49.48 -3.98C-49.48 -2.63 -49.19 -1.6 -48.61 -0.88C-48.02 -0.16 -47.21 0.2 -46.15 0.2C-45.16 0.2 -44.2 -0.11 -43.27 -0.73C-42.33 -1.36 -41.49 -2.27 -40.73 -3.47L-40.83 -2.34C-40.83 -2.33 -40.84 -2.24 -40.85 -2.09C-40.87 -1.93 -40.88 -1.75 -40.89 -1.57C-40.91 -1.38 -40.92 -1.21 -40.93 -1.05C-40.94 -0.89 -40.94 -0.81 -40.94 -0.8C-40.94 -0.53 -40.86 -0.33 -40.71 -0.2C-40.55 -0.07 -40.32 0 -40.03 0L-38.8 0L-37.09 -14.18L-39.57 -14.18L-40.45 -6.8C-40.72 -6.06 -41.04 -5.38 -41.4 -4.77C-41.77 -4.17 -42.16 -3.65 -42.59 -3.22C-43.01 -2.79 -43.45 -2.46 -43.9 -2.23C-44.36 -1.99 -44.8 -1.88 -45.23 -1.88C-45.84 -1.88 -46.29 -2.06 -46.58 -2.44C-46.86 -2.81 -47 -3.38 -47 -4.14C-47 -4.3 -47 -4.47 -46.98 -4.63C-46.97 -4.8 -46.95 -4.98 -46.93 -5.17Z M-33.9 -2.67C-33.88 -1.73 -33.61 -1.01 -33.09 -0.52C-32.57 -0.02 -31.85 0.22 -30.95 0.22C-30.36 0.22 -29.77 0.11 -29.19 -0.12C-28.61 -0.35 -28.09 -0.66 -27.64 -1.06L-28.16 -2.25C-28.21 -2.34 -28.25 -2.4 -28.29 -2.44C-28.34 -2.47 -28.39 -2.49 -28.47 -2.49C-28.54 -2.49 -28.63 -2.46 -28.72 -2.39C-28.81 -2.32 -28.93 -2.24 -29.06 -2.16C-29.2 -2.07 -29.36 -1.99 -29.55 -1.92C-29.73 -1.85 -29.95 -1.82 -30.19 -1.82C-30.57 -1.82 -30.87 -1.93 -31.09 -2.16C-31.31 -2.39 -31.42 -2.74 -31.42 -3.22C-31.42 -3.25 -31.42 -3.29 -31.42 -3.35C-31.41 -3.4 -31.4 -3.5 -31.39 -3.64L-31.33 -4.2C-31.31 -4.43 -31.27 -4.74 -31.23 -5.12L-30.37 -12.1L-26.63 -12.1L-26.42 -13.9L-30.15 -13.9L-29.53 -18.79L-30.85 -18.79C-31 -18.79 -31.12 -18.74 -31.23 -18.65C-31.33 -18.57 -31.4 -18.45 -31.44 -18.31L-32.49 -13.93L-34.67 -13.64C-34.68 -13.53 -34.69 -13.43 -34.71 -13.31C-34.72 -13.2 -34.73 -13.09 -34.75 -12.98C-34.76 -12.88 -34.77 -12.78 -34.78 -12.7C-34.79 -12.61 -34.8 -12.56 -34.8 -12.53C-34.8 -12.38 -34.76 -12.27 -34.68 -12.2C-34.6 -12.13 -34.5 -12.1 -34.38 -12.1L-32.79 -12.1L-33.68 -5C-33.73 -4.56 -33.77 -4.2 -33.8 -3.93C-33.83 -3.66 -33.85 -3.44 -33.87 -3.28C-33.88 -3.11 -33.89 -2.98 -33.89 -2.89C-33.9 -2.8 -33.9 -2.73 -33.9 -2.67Z M-21.05 -14.18L-23.5 -14.18L-25.21 0L-22.76 0ZM-20.11 -18.63C-20.11 -18.88 -20.16 -19.11 -20.25 -19.33C-20.34 -19.55 -20.47 -19.74 -20.64 -19.9C-20.8 -20.06 -20.98 -20.19 -21.19 -20.29C-21.39 -20.38 -21.61 -20.43 -21.83 -20.43C-22.05 -20.43 -22.26 -20.38 -22.46 -20.28C-22.67 -20.18 -22.85 -20.05 -23.01 -19.89C-23.17 -19.72 -23.29 -19.53 -23.39 -19.32C-23.48 -19.11 -23.53 -18.88 -23.53 -18.63C-23.53 -18.39 -23.48 -18.16 -23.39 -17.96C-23.29 -17.74 -23.17 -17.56 -23.02 -17.39C-22.86 -17.23 -22.68 -17.1 -22.48 -17.01C-22.27 -16.92 -22.06 -16.87 -21.85 -16.87C-21.62 -16.87 -21.41 -16.92 -21.2 -17.01C-21 -17.1 -20.81 -17.23 -20.65 -17.39C-20.49 -17.56 -20.36 -17.74 -20.26 -17.96C-20.16 -18.16 -20.11 -18.39 -20.11 -18.63Z M-13.45 -1.75C-14.43 -1.75 -15.17 -2.08 -15.68 -2.75C-16.19 -3.42 -16.44 -4.41 -16.44 -5.71C-16.44 -6.6 -16.34 -7.45 -16.12 -8.26C-15.91 -9.07 -15.6 -9.79 -15.21 -10.41C-14.82 -11.03 -14.35 -11.52 -13.79 -11.89C-13.23 -12.26 -12.61 -12.45 -11.92 -12.45C-10.95 -12.45 -10.21 -12.11 -9.69 -11.45C-9.18 -10.79 -8.93 -9.8 -8.93 -8.5C-8.93 -7.61 -9.03 -6.76 -9.25 -5.95C-9.46 -5.14 -9.76 -4.42 -10.16 -3.8C-10.55 -3.18 -11.02 -2.68 -11.58 -2.31C-12.15 -1.94 -12.77 -1.75 -13.45 -1.75ZM-13.67 0.2C-12.65 0.2 -11.7 -0.04 -10.82 -0.5C-9.93 -0.96 -9.16 -1.59 -8.51 -2.38C-7.86 -3.17 -7.35 -4.1 -6.98 -5.15C-6.61 -6.21 -6.42 -7.33 -6.42 -8.51C-6.42 -9.44 -6.55 -10.26 -6.81 -11C-7.07 -11.73 -7.44 -12.35 -7.9 -12.85C-8.37 -13.36 -8.93 -13.74 -9.57 -14.01C-10.21 -14.27 -10.92 -14.41 -11.7 -14.41C-12.72 -14.41 -13.68 -14.18 -14.56 -13.72C-15.44 -13.26 -16.21 -12.64 -16.86 -11.84C-17.5 -11.05 -18.02 -10.13 -18.39 -9.07C-18.76 -8.02 -18.95 -6.89 -18.95 -5.7C-18.95 -4.76 -18.82 -3.93 -18.56 -3.21C-18.3 -2.48 -17.93 -1.86 -17.46 -1.36C-17 -0.85 -16.44 -0.47 -15.8 -0.2C-15.15 0.06 -14.45 0.2 -13.67 0.2Z M-4.65 0L-2.16 0L-1.35 -7.21C-1.09 -7.98 -0.77 -8.69 -0.41 -9.32C-0.04 -9.95 0.36 -10.48 0.79 -10.93C1.22 -11.37 1.67 -11.71 2.13 -11.96C2.59 -12.2 3.05 -12.32 3.49 -12.32C4.1 -12.32 4.55 -12.14 4.83 -11.77C5.11 -11.4 5.26 -10.83 5.26 -10.07C5.26 -9.91 5.25 -9.74 5.24 -9.57C5.22 -9.4 5.21 -9.22 5.19 -9.03L4.12 0L6.62 0L7.68 -9.03C7.71 -9.24 7.73 -9.45 7.74 -9.65C7.74 -9.84 7.75 -10.03 7.75 -10.22C7.75 -11.58 7.46 -12.62 6.87 -13.33C6.29 -14.04 5.47 -14.39 4.42 -14.39C3.4 -14.39 2.42 -14.07 1.47 -13.44C0.52 -12.81 -0.33 -11.86 -1.09 -10.61L-0.87 -13.36C-0.87 -13.92 -1.15 -14.2 -1.71 -14.2L-2.96 -14.2Z M33.26 -11.44C33.26 -12.71 33.07 -13.87 32.7 -14.93C32.32 -15.99 31.79 -16.9 31.1 -17.66C30.41 -18.42 29.57 -19.01 28.57 -19.43C27.58 -19.85 26.47 -20.06 25.24 -20.06L18.32 -20.06L15.84 0L22.77 0C24.28 0 25.68 -0.28 26.96 -0.83C28.25 -1.38 29.35 -2.15 30.28 -3.16C31.21 -4.16 31.94 -5.36 32.47 -6.77C32.99 -8.17 33.26 -9.73 33.26 -11.44ZM30.57 -11.38C30.57 -9.94 30.38 -8.64 30.02 -7.5C29.65 -6.35 29.13 -5.38 28.47 -4.58C27.81 -3.79 27.01 -3.18 26.09 -2.75C25.17 -2.33 24.14 -2.11 23.02 -2.11L18.74 -2.11L20.7 -17.93L24.98 -17.93C25.85 -17.93 26.63 -17.78 27.32 -17.48C28.01 -17.18 28.6 -16.74 29.08 -16.18C29.56 -15.61 29.93 -14.92 30.18 -14.11C30.44 -13.3 30.57 -12.39 30.57 -11.38Z M46.21 -11.14C46.21 -11.49 46.13 -11.85 45.96 -12.24C45.8 -12.62 45.55 -12.97 45.21 -13.29C44.88 -13.6 44.45 -13.86 43.93 -14.07C43.4 -14.28 42.78 -14.38 42.06 -14.38C41.31 -14.38 40.6 -14.26 39.94 -14.03C39.28 -13.79 38.68 -13.47 38.14 -13.07C37.59 -12.66 37.1 -12.18 36.68 -11.62C36.26 -11.06 35.9 -10.45 35.6 -9.8C35.31 -9.15 35.08 -8.46 34.93 -7.73C34.78 -7.01 34.7 -6.29 34.7 -5.56C34.7 -4.68 34.82 -3.89 35.06 -3.18C35.31 -2.47 35.65 -1.86 36.1 -1.36C36.55 -0.87 37.09 -0.48 37.74 -0.21C38.38 0.06 39.11 0.2 39.92 0.2C40.52 0.2 41.08 0.14 41.59 0.04C42.11 -0.07 42.61 -0.24 43.09 -0.48C43.56 -0.71 44.03 -1 44.48 -1.35C44.93 -1.7 45.4 -2.12 45.87 -2.62L45.26 -3.39C45.11 -3.55 44.96 -3.63 44.79 -3.63C44.64 -3.63 44.49 -3.58 44.35 -3.49C44.2 -3.39 44.03 -3.28 43.86 -3.14C43.68 -3.01 43.48 -2.86 43.27 -2.69C43.06 -2.53 42.82 -2.38 42.55 -2.25C42.27 -2.11 41.96 -2 41.61 -1.9C41.26 -1.81 40.86 -1.76 40.41 -1.76C39.31 -1.76 38.49 -2.09 37.94 -2.75C37.39 -3.41 37.12 -4.36 37.12 -5.61L37.12 -5.91C37.12 -6.01 37.13 -6.11 37.14 -6.22C38.98 -6.4 40.49 -6.65 41.67 -6.96C42.85 -7.27 43.77 -7.63 44.44 -8.04C45.11 -8.46 45.58 -8.93 45.83 -9.44C46.08 -9.96 46.21 -10.53 46.21 -11.14ZM41.92 -12.59C42.3 -12.59 42.61 -12.54 42.88 -12.44C43.14 -12.34 43.35 -12.22 43.51 -12.07C43.68 -11.92 43.79 -11.75 43.87 -11.57C43.94 -11.39 43.98 -11.21 43.98 -11.05C43.98 -10.71 43.91 -10.39 43.76 -10.08C43.61 -9.77 43.3 -9.48 42.83 -9.22C42.37 -8.95 41.7 -8.71 40.83 -8.48C39.96 -8.25 38.81 -8.05 37.37 -7.87C37.52 -8.53 37.73 -9.15 38 -9.72C38.27 -10.3 38.6 -10.8 38.98 -11.22C39.37 -11.65 39.8 -11.98 40.3 -12.22C40.79 -12.46 41.34 -12.59 41.92 -12.59Z M47.83 -14.18L51.49 0L53.57 0L60.68 -14.18L58.74 -14.18C58.58 -14.18 58.43 -14.13 58.3 -14.03C58.17 -13.94 58.07 -13.81 58 -13.66L53.6 -4.54C53.43 -4.18 53.29 -3.83 53.18 -3.49C53.07 -3.15 52.96 -2.81 52.86 -2.48C52.84 -2.81 52.81 -3.15 52.78 -3.5C52.75 -3.85 52.69 -4.19 52.62 -4.54L50.51 -13.66C50.48 -13.8 50.41 -13.93 50.3 -14.03C50.18 -14.13 50.03 -14.18 49.85 -14.18Z M72.08 -11.14C72.08 -11.49 72 -11.85 71.83 -12.24C71.67 -12.62 71.42 -12.97 71.08 -13.29C70.75 -13.6 70.32 -13.86 69.8 -14.07C69.27 -14.28 68.65 -14.38 67.94 -14.38C67.18 -14.38 66.47 -14.26 65.81 -14.03C65.16 -13.79 64.55 -13.47 64.01 -13.07C63.46 -12.66 62.98 -12.18 62.55 -11.62C62.13 -11.06 61.77 -10.45 61.47 -9.8C61.18 -9.15 60.96 -8.46 60.8 -7.73C60.65 -7.01 60.57 -6.29 60.57 -5.56C60.57 -4.68 60.69 -3.89 60.93 -3.18C61.18 -2.47 61.52 -1.86 61.97 -1.36C62.42 -0.87 62.97 -0.48 63.61 -0.21C64.25 0.06 64.98 0.2 65.79 0.2C66.39 0.2 66.95 0.14 67.47 0.04C67.98 -0.07 68.48 -0.24 68.96 -0.48C69.43 -0.71 69.9 -1 70.35 -1.35C70.8 -1.7 71.27 -2.12 71.74 -2.62L71.13 -3.39C70.99 -3.55 70.83 -3.63 70.66 -3.63C70.52 -3.63 70.37 -3.58 70.22 -3.49C70.07 -3.39 69.9 -3.28 69.73 -3.14C69.55 -3.01 69.36 -2.86 69.15 -2.69C68.94 -2.53 68.69 -2.38 68.42 -2.25C68.14 -2.11 67.83 -2 67.48 -1.9C67.13 -1.81 66.73 -1.76 66.28 -1.76C65.18 -1.76 64.36 -2.09 63.81 -2.75C63.27 -3.41 62.99 -4.36 62.99 -5.61L62.99 -5.91C62.99 -6.01 63 -6.11 63.01 -6.22C64.86 -6.4 66.37 -6.65 67.54 -6.96C68.72 -7.27 69.64 -7.63 70.32 -8.04C70.99 -8.46 71.45 -8.93 71.7 -9.44C71.95 -9.96 72.08 -10.53 72.08 -11.14ZM67.8 -12.59C68.17 -12.59 68.49 -12.54 68.75 -12.44C69.01 -12.34 69.22 -12.22 69.38 -12.07C69.55 -11.92 69.67 -11.75 69.74 -11.57C69.82 -11.39 69.85 -11.21 69.85 -11.05C69.85 -10.71 69.78 -10.39 69.63 -10.08C69.48 -9.77 69.17 -9.48 68.71 -9.22C68.24 -8.95 67.57 -8.71 66.7 -8.48C65.83 -8.25 64.68 -8.05 63.25 -7.87C63.39 -8.53 63.6 -9.15 63.88 -9.72C64.15 -10.3 64.47 -10.8 64.86 -11.22C65.24 -11.65 65.68 -11.98 66.17 -12.22C66.67 -12.46 67.21 -12.59 67.8 -12.59Z M73.89 0L76.34 0L78.84 -20.62L76.39 -20.62Z M85.58 -1.75C84.6 -1.75 83.85 -2.08 83.34 -2.75C82.83 -3.42 82.58 -4.41 82.58 -5.71C82.58 -6.6 82.69 -7.45 82.9 -8.26C83.12 -9.07 83.42 -9.79 83.81 -10.41C84.2 -11.03 84.68 -11.52 85.23 -11.89C85.79 -12.26 86.41 -12.45 87.1 -12.45C88.07 -12.45 88.81 -12.11 89.33 -11.45C89.84 -10.79 90.1 -9.8 90.1 -8.5C90.1 -7.61 89.99 -6.76 89.78 -5.95C89.56 -5.14 89.26 -4.42 88.87 -3.8C88.47 -3.18 88 -2.68 87.44 -2.31C86.88 -1.94 86.26 -1.75 85.58 -1.75ZM85.35 0.2C86.37 0.2 87.32 -0.04 88.21 -0.5C89.09 -0.96 89.86 -1.59 90.51 -2.38C91.16 -3.17 91.67 -4.1 92.04 -5.15C92.42 -6.21 92.6 -7.33 92.6 -8.51C92.6 -9.44 92.47 -10.26 92.21 -11C91.95 -11.73 91.59 -12.35 91.12 -12.85C90.65 -13.36 90.1 -13.74 89.45 -14.01C88.81 -14.27 88.1 -14.41 87.33 -14.41C86.3 -14.41 85.34 -14.18 84.46 -13.72C83.58 -13.26 82.81 -12.64 82.17 -11.84C81.52 -11.05 81.01 -10.13 80.63 -9.07C80.26 -8.02 80.07 -6.89 80.07 -5.7C80.07 -4.76 80.2 -3.93 80.47 -3.21C80.73 -2.48 81.09 -1.86 81.56 -1.36C82.02 -0.85 82.58 -0.47 83.22 -0.2C83.87 0.06 84.58 0.2 85.35 0.2Z M93.77 4.8L96.19 4.8L96.94 -1.4C97.34 -0.89 97.82 -0.49 98.4 -0.22C98.98 0.06 99.62 0.2 100.32 0.2C100.97 0.2 101.6 0.07 102.19 -0.18C102.79 -0.43 103.34 -0.78 103.85 -1.23C104.36 -1.67 104.82 -2.19 105.24 -2.79C105.65 -3.39 106.01 -4.04 106.3 -4.74C106.6 -5.43 106.82 -6.16 106.98 -6.93C107.14 -7.7 107.22 -8.46 107.22 -9.23C107.22 -10.92 106.88 -12.2 106.21 -13.08C105.54 -13.95 104.6 -14.39 103.4 -14.39C102.87 -14.39 102.36 -14.3 101.86 -14.1C101.35 -13.91 100.87 -13.64 100.41 -13.29C99.95 -12.93 99.51 -12.5 99.09 -12C98.67 -11.51 98.28 -10.95 97.92 -10.33L98.16 -13.36C98.16 -13.92 97.88 -14.2 97.32 -14.2L96.08 -14.2ZM102.46 -12.39C103.19 -12.39 103.75 -12.1 104.15 -11.52C104.55 -10.94 104.76 -10.1 104.76 -8.99C104.76 -8.43 104.7 -7.86 104.6 -7.29C104.5 -6.71 104.35 -6.16 104.16 -5.62C103.97 -5.08 103.73 -4.58 103.45 -4.11C103.17 -3.64 102.86 -3.23 102.5 -2.88C102.15 -2.53 101.75 -2.25 101.33 -2.04C100.9 -1.84 100.44 -1.74 99.95 -1.74C99.44 -1.74 98.93 -1.84 98.43 -2.05C97.93 -2.26 97.51 -2.62 97.15 -3.14L97.6 -6.75C97.87 -7.56 98.19 -8.31 98.56 -9C98.93 -9.69 99.33 -10.29 99.76 -10.79C100.19 -11.3 100.63 -11.69 101.09 -11.97C101.56 -12.25 102.01 -12.39 102.46 -12.39Z M108.87 0L111.31 0L112.19 -7.39C112.45 -8.16 112.74 -8.85 113.06 -9.46C113.37 -10.07 113.72 -10.59 114.09 -11.01C114.45 -11.44 114.85 -11.76 115.26 -11.98C115.68 -12.21 116.11 -12.32 116.56 -12.32C117.11 -12.32 117.49 -12.16 117.71 -11.84C117.93 -11.53 118.04 -11.04 118.04 -10.37C118.04 -10.18 118.03 -9.97 118.01 -9.74C117.99 -9.52 117.97 -9.28 117.94 -9.03L116.87 0L119.33 0L120.24 -7.71C120.49 -8.46 120.78 -9.12 121.1 -9.69C121.42 -10.27 121.77 -10.75 122.14 -11.14C122.52 -11.52 122.9 -11.82 123.31 -12.02C123.71 -12.22 124.11 -12.32 124.51 -12.32C125.06 -12.32 125.45 -12.15 125.69 -11.82C125.92 -11.49 126.04 -10.98 126.04 -10.28C126.04 -9.9 126.01 -9.49 125.95 -9.03L124.89 0L127.34 0L128.4 -9.03C128.43 -9.28 128.45 -9.52 128.47 -9.76C128.49 -9.99 128.5 -10.22 128.5 -10.43C128.5 -11.71 128.24 -12.69 127.72 -13.37C127.2 -14.05 126.42 -14.39 125.38 -14.39C124.41 -14.39 123.48 -14.08 122.6 -13.46C121.72 -12.84 120.92 -11.88 120.21 -10.58C120.21 -11.81 119.98 -12.75 119.53 -13.4C119.07 -14.06 118.36 -14.39 117.4 -14.39C116.47 -14.39 115.6 -14.09 114.77 -13.49C113.93 -12.89 113.17 -12 112.47 -10.82L112.67 -13.36C112.67 -13.92 112.39 -14.2 111.83 -14.2L110.58 -14.2Z M142.15 -11.14C142.15 -11.49 142.07 -11.85 141.9 -12.24C141.74 -12.62 141.49 -12.97 141.16 -13.29C140.82 -13.6 140.39 -13.86 139.87 -14.07C139.34 -14.28 138.72 -14.38 138.01 -14.38C137.25 -14.38 136.54 -14.26 135.88 -14.03C135.23 -13.79 134.62 -13.47 134.08 -13.07C133.53 -12.66 133.05 -12.18 132.62 -11.62C132.2 -11.06 131.84 -10.45 131.54 -9.8C131.25 -9.15 131.03 -8.46 130.87 -7.73C130.72 -7.01 130.64 -6.29 130.64 -5.56C130.64 -4.68 130.76 -3.89 131.01 -3.18C131.25 -2.47 131.59 -1.86 132.04 -1.36C132.49 -0.87 133.04 -0.48 133.68 -0.21C134.32 0.06 135.05 0.2 135.86 0.2C136.46 0.2 137.02 0.14 137.54 0.04C138.05 -0.07 138.55 -0.24 139.03 -0.48C139.5 -0.71 139.97 -1 140.42 -1.35C140.87 -1.7 141.34 -2.12 141.81 -2.62L141.2 -3.39C141.06 -3.55 140.9 -3.63 140.74 -3.63C140.59 -3.63 140.44 -3.58 140.29 -3.49C140.14 -3.39 139.97 -3.28 139.8 -3.14C139.62 -3.01 139.43 -2.86 139.22 -2.69C139.01 -2.53 138.76 -2.38 138.49 -2.25C138.21 -2.11 137.9 -2 137.55 -1.9C137.2 -1.81 136.8 -1.76 136.35 -1.76C135.25 -1.76 134.43 -2.09 133.88 -2.75C133.34 -3.41 133.06 -4.36 133.06 -5.61L133.06 -5.91C133.06 -6.01 133.07 -6.11 133.08 -6.22C134.93 -6.4 136.44 -6.65 137.61 -6.96C138.79 -7.27 139.71 -7.63 140.39 -8.04C141.06 -8.46 141.52 -8.93 141.77 -9.44C142.02 -9.96 142.15 -10.53 142.15 -11.14ZM137.87 -12.59C138.24 -12.59 138.56 -12.54 138.82 -12.44C139.08 -12.34 139.29 -12.22 139.45 -12.07C139.62 -11.92 139.74 -11.75 139.81 -11.57C139.89 -11.39 139.92 -11.21 139.92 -11.05C139.92 -10.71 139.85 -10.39 139.7 -10.08C139.55 -9.77 139.24 -9.48 138.78 -9.22C138.31 -8.95 137.64 -8.71 136.77 -8.48C135.91 -8.25 134.75 -8.05 133.32 -7.87C133.46 -8.53 133.67 -9.15 133.95 -9.72C134.22 -10.3 134.54 -10.8 134.93 -11.22C135.31 -11.65 135.75 -11.98 136.24 -12.22C136.74 -12.46 137.28 -12.59 137.87 -12.59Z M143.72 0L146.21 0L147.02 -7.21C147.28 -7.98 147.6 -8.69 147.97 -9.32C148.33 -9.95 148.73 -10.48 149.16 -10.93C149.59 -11.37 150.04 -11.71 150.5 -11.96C150.96 -12.2 151.42 -12.32 151.86 -12.32C152.47 -12.32 152.92 -12.14 153.2 -11.77C153.49 -11.4 153.63 -10.83 153.63 -10.07C153.63 -9.91 153.62 -9.74 153.61 -9.57C153.59 -9.4 153.58 -9.22 153.56 -9.03L152.49 0L154.99 0L156.05 -9.03C156.08 -9.24 156.1 -9.45 156.11 -9.65C156.12 -9.84 156.12 -10.03 156.12 -10.22C156.12 -11.58 155.83 -12.62 155.25 -13.33C154.66 -14.04 153.84 -14.39 152.79 -14.39C151.77 -14.39 150.79 -14.07 149.84 -13.44C148.89 -12.81 148.04 -11.86 147.29 -10.61L147.5 -13.36C147.5 -13.92 147.22 -14.2 146.66 -14.2L145.41 -14.2Z M159.68 -2.67C159.7 -1.73 159.97 -1.01 160.49 -0.52C161.01 -0.02 161.73 0.22 162.63 0.22C163.22 0.22 163.8 0.11 164.39 -0.12C164.97 -0.35 165.49 -0.66 165.94 -1.06L165.42 -2.25C165.37 -2.34 165.33 -2.4 165.28 -2.44C165.24 -2.47 165.18 -2.49 165.11 -2.49C165.03 -2.49 164.95 -2.46 164.86 -2.39C164.76 -2.32 164.65 -2.24 164.51 -2.16C164.38 -2.07 164.22 -1.99 164.03 -1.92C163.84 -1.85 163.63 -1.82 163.39 -1.82C163 -1.82 162.7 -1.93 162.48 -2.16C162.26 -2.39 162.16 -2.74 162.16 -3.22C162.16 -3.25 162.16 -3.29 162.16 -3.35C162.17 -3.4 162.18 -3.5 162.19 -3.64L162.25 -4.2C162.27 -4.43 162.3 -4.74 162.35 -5.12L163.21 -12.1L166.94 -12.1L167.15 -13.9L163.43 -13.9L164.05 -18.79L162.73 -18.79C162.58 -18.79 162.45 -18.74 162.35 -18.65C162.25 -18.57 162.18 -18.45 162.14 -18.31L161.09 -13.93L158.91 -13.64C158.9 -13.53 158.89 -13.43 158.87 -13.31C158.86 -13.2 158.84 -13.09 158.83 -12.98C158.82 -12.88 158.8 -12.78 158.8 -12.7C158.79 -12.61 158.78 -12.56 158.78 -12.53C158.78 -12.38 158.82 -12.27 158.9 -12.2C158.98 -12.13 159.08 -12.1 159.2 -12.1L160.78 -12.1L159.9 -5C159.85 -4.56 159.8 -4.2 159.78 -3.93C159.75 -3.66 159.73 -3.44 159.71 -3.28C159.7 -3.11 159.69 -2.98 159.68 -2.89C159.68 -2.8 159.68 -2.73 159.68 -2.67Z"></path></g></g></svg>